<?xml version="1.0" encoding="UTF-8" standalone="no"?>
<!DOCTYPE svg PUBLIC "-//W3C//DTD SVG 1.1//EN" "http://www.w3.org/Graphics/SVG/1.1/DTD/svg11.dtd">
<svg width="100%" height="100%" viewBox="0 0 571 257" version="1.1" xmlns="http://www.w3.org/2000/svg" xmlns:xlink="http://www.w3.org/1999/xlink" xml:space="preserve" xmlns:serif="http://www.serif.com/" style="fill-rule:evenodd;clip-rule:evenodd;stroke-linejoin:round;stroke-miterlimit:2;">
    <g transform="matrix(1,0,0,1,-135.66,-169.32)">
        <g id="CC-iNFINITY-LOGO" serif:id="CC iNFINITY LOGO">
            <g transform="matrix(1,0,0,1,668.703,388.377)">
                <path d="M0,-181.473C-24.234,-205.709 -56.457,-219.056 -90.731,-219.056C-125.008,-219.056 -157.23,-205.709 -181.468,-181.474L-185.121,-177.821L-160.645,-153.344L-156.993,-156.996C-139.295,-174.695 -115.764,-184.442 -90.731,-184.442C-65.702,-184.442 -42.172,-174.695 -24.473,-156.997C12.063,-120.46 12.063,-61.013 -24.473,-24.477C-42.175,-6.779 -65.705,2.969 -90.731,2.969C-115.761,2.969 -139.293,-6.78 -156.993,-24.481L-160.646,-28.13L-185.122,-3.653L-181.47,-0.004C-157.23,24.235 -125.007,37.583 -90.731,37.583C-56.457,37.583 -24.233,24.235 0,-0.004C24.199,-24.201 37.526,-56.425 37.526,-90.738C37.526,-125.051 24.199,-157.274 0,-181.473" style="fill:white;fill-rule:nonzero;"/>
            </g>
            <g transform="matrix(1,0,0,1,483.479,335.669)">
                <path d="M0,-76.06L-24.475,-100.536L-62.505,-62.505L-100.535,-100.536L-125.012,-76.06L-86.981,-38.029L-125.012,0.001L-100.536,24.476L-62.505,-13.554L-24.475,24.476L0.002,0.001L-38.027,-38.029L0,-76.06Z" style="fill:white;fill-rule:nonzero;"/>
            </g>
            <g transform="matrix(1,0,0,1,263.98,391.345)">
                <path d="M0,-187.411C25.029,-187.411 48.561,-177.664 66.258,-159.966L69.911,-156.312L94.388,-180.79L90.736,-184.442C66.5,-208.678 34.276,-222.025 0,-222.025C-34.276,-222.025 -66.5,-208.678 -90.735,-184.442C-114.972,-160.206 -128.32,-127.982 -128.32,-93.707C-128.32,-59.432 -114.972,-27.209 -90.736,-2.973C-66.5,21.266 -34.276,34.614 0,34.614C34.276,34.614 66.5,21.266 90.736,-2.973L94.386,-6.625L69.911,-31.099L66.259,-27.447C48.56,-9.747 25.029,0 0,0C-25.029,0 -48.56,-9.747 -66.259,-27.447C-83.958,-45.145 -93.706,-68.677 -93.706,-93.707C-93.706,-118.737 -83.958,-142.267 -66.259,-159.965C-48.561,-177.664 -25.029,-187.411 0,-187.411" style="fill:white;fill-rule:nonzero;"/>
            </g>
            <g transform="matrix(1,0,0,1,702.961,169.321)">
                <path d="M0,16.473L-0.606,6.785C-0.666,5.512 -0.666,3.934 -0.725,2.18L-0.907,2.18C-1.331,3.634 -1.814,5.572 -2.298,7.085L-5.266,16.231L-8.658,16.231L-11.626,6.844C-11.927,5.572 -12.41,3.634 -12.775,2.18L-12.958,2.18C-12.958,3.693 -13.017,5.271 -13.081,6.785L-13.683,16.473L-16.833,16.473L-15.62,0L-10.719,0L-7.869,8.056C-7.51,9.328 -7.204,10.536 -6.779,12.233L-6.721,12.233C-6.296,10.719 -5.932,9.328 -5.571,8.116L-2.722,0L2.002,0L3.269,16.473L0,16.473ZM-17.8,0L-17.8,2.726L-23.07,2.726L-23.07,16.473L-26.339,16.473L-26.339,2.726L-31.609,2.726L-31.609,0L-17.8,0Z" style="fill:white;fill-rule:nonzero;"/>
            </g>
        </g>
    </g>
</svg>
